<?xml version="1.0" encoding="UTF-8" standalone="no"?>
<!-- Created with Inkscape (http://www.inkscape.org/) -->

<svg
   xmlns:dc="http://purl.org/dc/elements/1.1/"
   xmlns:cc="http://creativecommons.org/ns#"
   xmlns:rdf="http://www.w3.org/1999/02/22-rdf-syntax-ns#"
   xmlns:svg="http://www.w3.org/2000/svg"
   xmlns="http://www.w3.org/2000/svg"
   xmlns:sodipodi="http://sodipodi.sourceforge.net/DTD/sodipodi-0.dtd"
   xmlns:inkscape="http://www.inkscape.org/namespaces/inkscape"
   width="103.96938mm"
   height="67.868004mm"
   viewBox="0 0 368.39544 240.47718"
   id="svg2"
   version="1.1"
   inkscape:version="0.91 r13725"
   sodipodi:docname="table.svg">
  <defs
     id="defs4">
    <marker
       inkscape:stockid="Arrow2Lend"
       orient="auto"
       refY="0"
       refX="0"
       id="Arrow2Lend"
       style="overflow:visible"
       inkscape:isstock="true">
      <path
         id="path4379"
         style="fill:#000000;fill-opacity:1;fill-rule:evenodd;stroke:#000000;stroke-width:0.625;stroke-linejoin:round;stroke-opacity:1"
         d="M 8.7185878,4.0337352 -2.2072895,0.01601326 8.7185884,-4.0017078 c -1.7454984,2.3720609 -1.7354408,5.6174519 -6e-7,8.035443 z"
         transform="matrix(-1.1,0,0,-1.1,-1.1,0)"
         inkscape:connector-curvature="0" />
    </marker>
    <marker
       inkscape:stockid="Arrow1Lend"
       orient="auto"
       refY="0"
       refX="0"
       id="marker4698"
       style="overflow:visible"
       inkscape:isstock="true">
      <path
         id="path4700"
         d="M 0,0 5,-5 -12.5,0 5,5 0,0 Z"
         style="fill:#000000;fill-opacity:1;fill-rule:evenodd;stroke:#000000;stroke-width:1pt;stroke-opacity:1"
         transform="matrix(-0.8,0,0,-0.8,-10,0)"
         inkscape:connector-curvature="0" />
    </marker>
    <marker
       inkscape:stockid="Arrow1Lend"
       orient="auto"
       refY="0"
       refX="0"
       id="Arrow1Lend"
       style="overflow:visible"
       inkscape:isstock="true">
      <path
         id="path4361"
         d="M 0,0 5,-5 -12.5,0 5,5 0,0 Z"
         style="fill:#000000;fill-opacity:1;fill-rule:evenodd;stroke:#000000;stroke-width:1pt;stroke-opacity:1"
         transform="matrix(-0.8,0,0,-0.8,-10,0)"
         inkscape:connector-curvature="0" />
    </marker>
    <marker
       inkscape:stockid="Arrow2Lstart"
       orient="auto"
       refY="0"
       refX="0"
       id="Arrow2Lstart"
       style="overflow:visible"
       inkscape:isstock="true">
      <path
         id="path4376"
         style="fill:#000000;fill-opacity:1;fill-rule:evenodd;stroke:#000000;stroke-width:0.625;stroke-linejoin:round;stroke-opacity:1"
         d="M 8.7185878,4.0337352 -2.2072895,0.01601326 8.7185884,-4.0017078 c -1.7454984,2.3720609 -1.7354408,5.6174519 -6e-7,8.035443 z"
         transform="matrix(1.1,0,0,1.1,1.1,0)"
         inkscape:connector-curvature="0" />
    </marker>
    <marker
       inkscape:stockid="Arrow1Lstart"
       orient="auto"
       refY="0"
       refX="0"
       id="Arrow1Lstart"
       style="overflow:visible"
       inkscape:isstock="true">
      <path
         id="path4358"
         d="M 0,0 5,-5 -12.5,0 5,5 0,0 Z"
         style="fill:#000000;fill-opacity:1;fill-rule:evenodd;stroke:#000000;stroke-width:1pt;stroke-opacity:1"
         transform="matrix(0.8,0,0,0.8,10,0)"
         inkscape:connector-curvature="0" />
    </marker>
    <marker
       inkscape:stockid="Arrow2Lstart"
       orient="auto"
       refY="0"
       refX="0"
       id="Arrow2Lstart-2"
       style="overflow:visible"
       inkscape:isstock="true">
      <path
         inkscape:connector-curvature="0"
         id="path4376-5"
         style="fill:#000000;fill-opacity:1;fill-rule:evenodd;stroke:#000000;stroke-width:0.625;stroke-linejoin:round;stroke-opacity:1"
         d="M 8.7185878,4.0337352 -2.2072895,0.01601326 8.7185884,-4.0017078 c -1.7454984,2.3720609 -1.7354408,5.6174519 -6e-7,8.035443 z"
         transform="matrix(1.1,0,0,1.1,1.1,0)" />
    </marker>
    <marker
       inkscape:stockid="Arrow2Lend"
       orient="auto"
       refY="0"
       refX="0"
       id="Arrow2Lend-5"
       style="overflow:visible"
       inkscape:isstock="true">
      <path
         inkscape:connector-curvature="0"
         id="path4379-8"
         style="fill:#000000;fill-opacity:1;fill-rule:evenodd;stroke:#000000;stroke-width:0.625;stroke-linejoin:round;stroke-opacity:1"
         d="M 8.7185878,4.0337352 -2.2072895,0.01601326 8.7185884,-4.0017078 c -1.7454984,2.3720609 -1.7354408,5.6174519 -6e-7,8.035443 z"
         transform="matrix(-1.1,0,0,-1.1,-1.1,0)" />
    </marker>
    <marker
       inkscape:stockid="Arrow2Lstart"
       orient="auto"
       refY="0"
       refX="0"
       id="Arrow2Lstart-2-1"
       style="overflow:visible"
       inkscape:isstock="true">
      <path
         inkscape:connector-curvature="0"
         id="path4376-5-1"
         style="fill:#000000;fill-opacity:1;fill-rule:evenodd;stroke:#000000;stroke-width:0.625;stroke-linejoin:round;stroke-opacity:1"
         d="M 8.7185878,4.0337352 -2.2072895,0.01601326 8.7185884,-4.0017078 c -1.7454984,2.3720609 -1.7354408,5.6174519 -6e-7,8.035443 z"
         transform="matrix(1.1,0,0,1.1,1.1,0)" />
    </marker>
    <marker
       inkscape:stockid="Arrow2Lend"
       orient="auto"
       refY="0"
       refX="0"
       id="Arrow2Lend-5-9"
       style="overflow:visible"
       inkscape:isstock="true">
      <path
         inkscape:connector-curvature="0"
         id="path4379-8-3"
         style="fill:#000000;fill-opacity:1;fill-rule:evenodd;stroke:#000000;stroke-width:0.625;stroke-linejoin:round;stroke-opacity:1"
         d="M 8.7185878,4.0337352 -2.2072895,0.01601326 8.7185884,-4.0017078 c -1.7454984,2.3720609 -1.7354408,5.6174519 -6e-7,8.035443 z"
         transform="matrix(-1.1,0,0,-1.1,-1.1,0)" />
    </marker>
    <marker
       inkscape:stockid="Arrow2Lend"
       orient="auto"
       refY="0"
       refX="0"
       id="Arrow2Lend-5-9-5"
       style="overflow:visible"
       inkscape:isstock="true">
      <path
         inkscape:connector-curvature="0"
         id="path4379-8-3-5"
         style="fill:#000000;fill-opacity:1;fill-rule:evenodd;stroke:#000000;stroke-width:0.625;stroke-linejoin:round;stroke-opacity:1"
         d="M 8.7185878,4.0337352 -2.2072895,0.01601326 8.7185884,-4.0017078 c -1.7454984,2.3720609 -1.7354408,5.6174519 -6e-7,8.035443 z"
         transform="matrix(-1.1,0,0,-1.1,-1.1,0)" />
    </marker>
    <marker
       inkscape:stockid="Arrow2Lstart"
       orient="auto"
       refY="0"
       refX="0"
       id="Arrow2Lstart-2-7"
       style="overflow:visible"
       inkscape:isstock="true">
      <path
         inkscape:connector-curvature="0"
         id="path4376-5-8"
         style="fill:#000000;fill-opacity:1;fill-rule:evenodd;stroke:#000000;stroke-width:0.625;stroke-linejoin:round;stroke-opacity:1"
         d="M 8.7185878,4.0337352 -2.2072895,0.01601326 8.7185884,-4.0017078 c -1.7454984,2.3720609 -1.7354408,5.6174519 -6e-7,8.035443 z"
         transform="matrix(1.1,0,0,1.1,1.1,0)" />
    </marker>
    <marker
       inkscape:stockid="Arrow2Lend"
       orient="auto"
       refY="0"
       refX="0"
       id="Arrow2Lend-5-94"
       style="overflow:visible"
       inkscape:isstock="true">
      <path
         inkscape:connector-curvature="0"
         id="path4379-8-2"
         style="fill:#000000;fill-opacity:1;fill-rule:evenodd;stroke:#000000;stroke-width:0.625;stroke-linejoin:round;stroke-opacity:1"
         d="M 8.7185878,4.0337352 -2.2072895,0.01601326 8.7185884,-4.0017078 c -1.7454984,2.3720609 -1.7354408,5.6174519 -6e-7,8.035443 z"
         transform="matrix(-1.1,0,0,-1.1,-1.1,0)" />
    </marker>
    <marker
       inkscape:stockid="Arrow2Lstart"
       orient="auto"
       refY="0"
       refX="0"
       id="Arrow2Lstart-2-5"
       style="overflow:visible"
       inkscape:isstock="true">
      <path
         inkscape:connector-curvature="0"
         id="path4376-5-85"
         style="fill:#000000;fill-opacity:1;fill-rule:evenodd;stroke:#000000;stroke-width:0.625;stroke-linejoin:round;stroke-opacity:1"
         d="M 8.7185878,4.0337352 -2.2072895,0.01601326 8.7185884,-4.0017078 c -1.7454984,2.3720609 -1.7354408,5.6174519 -6e-7,8.035443 z"
         transform="matrix(1.1,0,0,1.1,1.1,0)" />
    </marker>
    <marker
       inkscape:stockid="Arrow2Lend"
       orient="auto"
       refY="0"
       refX="0"
       id="Arrow2Lend-5-6"
       style="overflow:visible"
       inkscape:isstock="true">
      <path
         inkscape:connector-curvature="0"
         id="path4379-8-24"
         style="fill:#000000;fill-opacity:1;fill-rule:evenodd;stroke:#000000;stroke-width:0.625;stroke-linejoin:round;stroke-opacity:1"
         d="M 8.7185878,4.0337352 -2.2072895,0.01601326 8.7185884,-4.0017078 c -1.7454984,2.3720609 -1.7354408,5.6174519 -6e-7,8.035443 z"
         transform="matrix(-1.1,0,0,-1.1,-1.1,0)" />
    </marker>
    <marker
       inkscape:stockid="Arrow2Lstart"
       orient="auto"
       refY="0"
       refX="0"
       id="Arrow2Lstart-2-2"
       style="overflow:visible"
       inkscape:isstock="true">
      <path
         inkscape:connector-curvature="0"
         id="path4376-5-82"
         style="fill:#000000;fill-opacity:1;fill-rule:evenodd;stroke:#000000;stroke-width:0.625;stroke-linejoin:round;stroke-opacity:1"
         d="M 8.7185878,4.0337352 -2.2072895,0.01601326 8.7185884,-4.0017078 c -1.7454984,2.3720609 -1.7354408,5.6174519 -6e-7,8.035443 z"
         transform="matrix(1.1,0,0,1.1,1.1,0)" />
    </marker>
    <marker
       inkscape:stockid="Arrow2Lend"
       orient="auto"
       refY="0"
       refX="0"
       id="Arrow2Lend-5-5"
       style="overflow:visible"
       inkscape:isstock="true">
      <path
         inkscape:connector-curvature="0"
         id="path4379-8-6"
         style="fill:#000000;fill-opacity:1;fill-rule:evenodd;stroke:#000000;stroke-width:0.625;stroke-linejoin:round;stroke-opacity:1"
         d="M 8.7185878,4.0337352 -2.2072895,0.01601326 8.7185884,-4.0017078 c -1.7454984,2.3720609 -1.7354408,5.6174519 -6e-7,8.035443 z"
         transform="matrix(-1.1,0,0,-1.1,-1.1,0)" />
    </marker>
    <marker
       inkscape:stockid="Arrow2Lstart"
       orient="auto"
       refY="0"
       refX="0"
       id="Arrow2Lstart-2-7-2"
       style="overflow:visible"
       inkscape:isstock="true">
      <path
         inkscape:connector-curvature="0"
         id="path4376-5-8-0"
         style="fill:#000000;fill-opacity:1;fill-rule:evenodd;stroke:#000000;stroke-width:0.625;stroke-linejoin:round;stroke-opacity:1"
         d="M 8.7185878,4.0337352 -2.2072895,0.01601326 8.7185884,-4.0017078 c -1.7454984,2.3720609 -1.7354408,5.6174519 -6e-7,8.035443 z"
         transform="matrix(1.1,0,0,1.1,1.1,0)" />
    </marker>
    <marker
       inkscape:stockid="Arrow2Lend"
       orient="auto"
       refY="0"
       refX="0"
       id="Arrow2Lend-5-94-2"
       style="overflow:visible"
       inkscape:isstock="true">
      <path
         inkscape:connector-curvature="0"
         id="path4379-8-2-9"
         style="fill:#000000;fill-opacity:1;fill-rule:evenodd;stroke:#000000;stroke-width:0.625;stroke-linejoin:round;stroke-opacity:1"
         d="M 8.7185878,4.0337352 -2.2072895,0.01601326 8.7185884,-4.0017078 c -1.7454984,2.3720609 -1.7354408,5.6174519 -6e-7,8.035443 z"
         transform="matrix(-1.1,0,0,-1.1,-1.1,0)" />
    </marker>
    <marker
       inkscape:stockid="Arrow2Lstart"
       orient="auto"
       refY="0"
       refX="0"
       id="Arrow2Lstart-2-7-2-9"
       style="overflow:visible"
       inkscape:isstock="true">
      <path
         inkscape:connector-curvature="0"
         id="path4376-5-8-0-9"
         style="fill:#000000;fill-opacity:1;fill-rule:evenodd;stroke:#000000;stroke-width:0.625;stroke-linejoin:round;stroke-opacity:1"
         d="M 8.7185878,4.0337352 -2.2072895,0.01601326 8.7185884,-4.0017078 c -1.7454984,2.3720609 -1.7354408,5.6174519 -6e-7,8.035443 z"
         transform="matrix(1.1,0,0,1.1,1.1,0)" />
    </marker>
    <marker
       inkscape:stockid="Arrow2Lend"
       orient="auto"
       refY="0"
       refX="0"
       id="Arrow2Lend-5-94-2-4"
       style="overflow:visible"
       inkscape:isstock="true">
      <path
         inkscape:connector-curvature="0"
         id="path4379-8-2-9-3"
         style="fill:#000000;fill-opacity:1;fill-rule:evenodd;stroke:#000000;stroke-width:0.625;stroke-linejoin:round;stroke-opacity:1"
         d="M 8.7185878,4.0337352 -2.2072895,0.01601326 8.7185884,-4.0017078 c -1.7454984,2.3720609 -1.7354408,5.6174519 -6e-7,8.035443 z"
         transform="matrix(-1.1,0,0,-1.1,-1.1,0)" />
    </marker>
    <marker
       inkscape:stockid="Arrow2Lstart"
       orient="auto"
       refY="0"
       refX="0"
       id="Arrow2Lstart-2-7-2-2"
       style="overflow:visible"
       inkscape:isstock="true">
      <path
         inkscape:connector-curvature="0"
         id="path4376-5-8-0-2"
         style="fill:#000000;fill-opacity:1;fill-rule:evenodd;stroke:#000000;stroke-width:0.625;stroke-linejoin:round;stroke-opacity:1"
         d="M 8.7185878,4.0337352 -2.2072895,0.01601326 8.7185884,-4.0017078 c -1.7454984,2.3720609 -1.7354408,5.6174519 -6e-7,8.035443 z"
         transform="matrix(1.1,0,0,1.1,1.1,0)" />
    </marker>
    <marker
       inkscape:stockid="Arrow2Lend"
       orient="auto"
       refY="0"
       refX="0"
       id="Arrow2Lend-5-94-2-8"
       style="overflow:visible"
       inkscape:isstock="true">
      <path
         inkscape:connector-curvature="0"
         id="path4379-8-2-9-4"
         style="fill:#000000;fill-opacity:1;fill-rule:evenodd;stroke:#000000;stroke-width:0.625;stroke-linejoin:round;stroke-opacity:1"
         d="M 8.7185878,4.0337352 -2.2072895,0.01601326 8.7185884,-4.0017078 c -1.7454984,2.3720609 -1.7354408,5.6174519 -6e-7,8.035443 z"
         transform="matrix(-1.1,0,0,-1.1,-1.1,0)" />
    </marker>
    <marker
       inkscape:stockid="Arrow2Lstart"
       orient="auto"
       refY="0"
       refX="0"
       id="Arrow2Lstart-2-7-2-24"
       style="overflow:visible"
       inkscape:isstock="true">
      <path
         inkscape:connector-curvature="0"
         id="path4376-5-8-0-4"
         style="fill:#000000;fill-opacity:1;fill-rule:evenodd;stroke:#000000;stroke-width:0.625;stroke-linejoin:round;stroke-opacity:1"
         d="M 8.7185878,4.0337352 -2.2072895,0.01601326 8.7185884,-4.0017078 c -1.7454984,2.3720609 -1.7354408,5.6174519 -6e-7,8.035443 z"
         transform="matrix(1.1,0,0,1.1,1.1,0)" />
    </marker>
    <marker
       inkscape:stockid="Arrow2Lend"
       orient="auto"
       refY="0"
       refX="0"
       id="Arrow2Lend-5-94-2-2"
       style="overflow:visible"
       inkscape:isstock="true">
      <path
         inkscape:connector-curvature="0"
         id="path4379-8-2-9-1"
         style="fill:#000000;fill-opacity:1;fill-rule:evenodd;stroke:#000000;stroke-width:0.625;stroke-linejoin:round;stroke-opacity:1"
         d="M 8.7185878,4.0337352 -2.2072895,0.01601326 8.7185884,-4.0017078 c -1.7454984,2.3720609 -1.7354408,5.6174519 -6e-7,8.035443 z"
         transform="matrix(-1.1,0,0,-1.1,-1.1,0)" />
    </marker>
    <marker
       inkscape:stockid="Arrow2Lstart"
       orient="auto"
       refY="0"
       refX="0"
       id="Arrow2Lstart-2-7-2-0"
       style="overflow:visible"
       inkscape:isstock="true">
      <path
         inkscape:connector-curvature="0"
         id="path4376-5-8-0-90"
         style="fill:#000000;fill-opacity:1;fill-rule:evenodd;stroke:#000000;stroke-width:0.625;stroke-linejoin:round;stroke-opacity:1"
         d="M 8.7185878,4.0337352 -2.2072895,0.01601326 8.7185884,-4.0017078 c -1.7454984,2.3720609 -1.7354408,5.6174519 -6e-7,8.035443 z"
         transform="matrix(1.1,0,0,1.1,1.1,0)" />
    </marker>
    <marker
       inkscape:stockid="Arrow2Lend"
       orient="auto"
       refY="0"
       refX="0"
       id="Arrow2Lend-5-94-2-9"
       style="overflow:visible"
       inkscape:isstock="true">
      <path
         inkscape:connector-curvature="0"
         id="path4379-8-2-9-8"
         style="fill:#000000;fill-opacity:1;fill-rule:evenodd;stroke:#000000;stroke-width:0.625;stroke-linejoin:round;stroke-opacity:1"
         d="M 8.7185878,4.0337352 -2.2072895,0.01601326 8.7185884,-4.0017078 c -1.7454984,2.3720609 -1.7354408,5.6174519 -6e-7,8.035443 z"
         transform="matrix(-1.1,0,0,-1.1,-1.1,0)" />
    </marker>
    <marker
       inkscape:stockid="Arrow2Lstart"
       orient="auto"
       refY="0"
       refX="0"
       id="Arrow2Lstart-2-7-2-4"
       style="overflow:visible"
       inkscape:isstock="true">
      <path
         inkscape:connector-curvature="0"
         id="path4376-5-8-0-5"
         style="fill:#000000;fill-opacity:1;fill-rule:evenodd;stroke:#000000;stroke-width:0.625;stroke-linejoin:round;stroke-opacity:1"
         d="M 8.7185878,4.0337352 -2.2072895,0.01601326 8.7185884,-4.0017078 c -1.7454984,2.3720609 -1.7354408,5.6174519 -6e-7,8.035443 z"
         transform="matrix(1.1,0,0,1.1,1.1,0)" />
    </marker>
    <marker
       inkscape:stockid="Arrow2Lend"
       orient="auto"
       refY="0"
       refX="0"
       id="Arrow2Lend-5-94-2-1"
       style="overflow:visible"
       inkscape:isstock="true">
      <path
         inkscape:connector-curvature="0"
         id="path4379-8-2-9-6"
         style="fill:#000000;fill-opacity:1;fill-rule:evenodd;stroke:#000000;stroke-width:0.625;stroke-linejoin:round;stroke-opacity:1"
         d="M 8.7185878,4.0337352 -2.2072895,0.01601326 8.7185884,-4.0017078 c -1.7454984,2.3720609 -1.7354408,5.6174519 -6e-7,8.035443 z"
         transform="matrix(-1.1,0,0,-1.1,-1.1,0)" />
    </marker>
  </defs>
  <sodipodi:namedview
     id="base"
     pagecolor="#ffffff"
     bordercolor="#666666"
     borderopacity="1.0"
     inkscape:pageopacity="0.0"
     inkscape:pageshadow="2"
     inkscape:zoom="11.2"
     inkscape:cx="342.44641"
     inkscape:cy="148.74814"
     inkscape:document-units="px"
     inkscape:current-layer="layer1"
     showgrid="false"
     fit-margin-top="0"
     fit-margin-left="0"
     fit-margin-right="0"
     fit-margin-bottom="0"
     inkscape:window-width="1680"
     inkscape:window-height="996"
     inkscape:window-x="0"
     inkscape:window-y="30"
     inkscape:window-maximized="1" />
  <metadata
     id="metadata7">
    <rdf:RDF>
      <cc:Work
         rdf:about="">
        <dc:format>image/svg+xml</dc:format>
        <dc:type
           rdf:resource="http://purl.org/dc/dcmitype/StillImage" />
        <dc:title></dc:title>
      </cc:Work>
    </rdf:RDF>
  </metadata>
  <g
     inkscape:label="Layer 1"
     inkscape:groupmode="layer"
     id="layer1"
     transform="translate(-49.725037,-116.31339)">
    <rect
       style="opacity:1;fill:#0f5d2b;fill-opacity:1;stroke:#000000;stroke-width:2;stroke-linejoin:miter;stroke-miterlimit:4;stroke-dasharray:none;stroke-dashoffset:0;stroke-opacity:1"
       id="rect4136"
       width="180.30006"
       height="366.39542"
       x="175.48012"
       y="-417.12045"
       rx="24.999998"
       ry="25"
       transform="matrix(0,1,-1,0,0,0)" />
    <circle
       style="opacity:1;fill:#ffffff;fill-opacity:1;stroke:#000000;stroke-width:0.60015219;stroke-linejoin:miter;stroke-miterlimit:4;stroke-dasharray:none;stroke-dashoffset:0;stroke-opacity:1"
       id="path4308"
       cx="269.72794"
       cy="-145.71732"
       r="9.6999235"
       transform="matrix(0,1,-1,0,0,0)" />
    <circle
       style="opacity:1;fill:#fbe066;fill-opacity:1;stroke:#000000;stroke-width:0.60015219;stroke-linejoin:miter;stroke-miterlimit:4;stroke-dasharray:none;stroke-dashoffset:0;stroke-opacity:1"
       id="path4308-6"
       cx="278.41754"
       cy="-285.58093"
       r="9.6999235"
       transform="matrix(0,1,-1,0,0,0)" />
    <path
       style="fill:none;fill-rule:evenodd;stroke:#fbe066;stroke-width:0.5;stroke-linecap:butt;stroke-linejoin:miter;stroke-miterlimit:4;stroke-dasharray:1, 0.5;stroke-dashoffset:0;stroke-opacity:1"
       d="M 400.1419,338.53587 C 212.25352,240.04599 212.25352,240.04599 212.25352,240.04599"
       id="path4325"
       inkscape:connector-curvature="0" />
    <path
       style="fill:none;fill-rule:evenodd;stroke:#d6d8da;stroke-width:0.5;stroke-linecap:butt;stroke-linejoin:miter;stroke-miterlimit:4;stroke-dasharray:1, 0.5;stroke-dashoffset:0;stroke-opacity:1"
       d="m 155.55871,269.46668 113.34772,0"
       id="path4327"
       inkscape:connector-curvature="0"
       sodipodi:nodetypes="cc" />
    <circle
       style="opacity:1;fill:none;fill-opacity:1;stroke:#babec2;stroke-width:0.5;stroke-linejoin:miter;stroke-miterlimit:4;stroke-dasharray:1, 0.5;stroke-dashoffset:0;stroke-opacity:1"
       id="path4308-1"
       cx="269.08786"
       cy="-268.56952"
       r="9.6999235"
       transform="matrix(0,1,-1,0,0,0)" />
    <path
       style="fill:#fbe066;fill-rule:evenodd;stroke:#fbe066;stroke-width:0.5;stroke-linecap:butt;stroke-linejoin:miter;stroke-miterlimit:4;stroke-dasharray:1, 0.5;stroke-dashoffset:0;stroke-opacity:1"
       d="m 225.33857,239.59117 c -13.39286,0 -13.39286,0 -13.39286,0"
       id="path4344"
       inkscape:connector-curvature="0" />
    <path
       style="opacity:1;fill:none;fill-opacity:1;stroke:#fbe066;stroke-width:0.5;stroke-linejoin:miter;stroke-miterlimit:4;stroke-dasharray:none;stroke-dashoffset:0;stroke-opacity:1"
       id="path4346"
       transform="matrix(0,1,-1,0,0,0)"
       sodipodi:type="arc"
       sodipodi:cx="239.97461"
       sodipodi:cy="-211.84729"
       sodipodi:rx="9.0814009"
       sodipodi:ry="9.0814009"
       sodipodi:start="4.6513025"
       sodipodi:end="5.1783919"
       d="m 239.4202,-220.91175 a 9.0814009,9.0814009 0 0 1 4.63486,0.9514"
       sodipodi:open="true" />
    <text
       xml:space="preserve"
       style="font-style:normal;font-variant:normal;font-weight:normal;font-stretch:normal;font-size:15px;line-height:125%;font-family:Cantarell;-inkscape-font-specification:Sans;text-align:start;letter-spacing:0px;word-spacing:0px;writing-mode:lr-tb;text-anchor:start;fill:#fbe066;fill-opacity:1;stroke:none;stroke-width:1px;stroke-linecap:butt;stroke-linejoin:miter;stroke-opacity:1"
       x="225.83157"
       y="243.30101"
       id="text4348"
       sodipodi:linespacing="125%"><tspan
         sodipodi:role="line"
         id="tspan4350"
         x="225.83157"
         y="243.30101"
         style="font-size:12.5px;fill:#fbe066">28°</tspan></text>
    <path
       style="fill:none;fill-rule:evenodd;stroke:#000000;stroke-width:1px;stroke-linecap:butt;stroke-linejoin:miter;stroke-opacity:1;marker-start:url(#Arrow2Lstart);marker-end:url(#Arrow2Lend)"
       d="m 282.31165,287.67359 c 109.34228,57.36487 109.34228,57.36487 109.34228,57.36487"
       id="path4352"
       inkscape:connector-curvature="0" />
    <text
       xml:space="preserve"
       style="font-style:normal;font-variant:normal;font-weight:normal;font-stretch:normal;font-size:12.5px;line-height:125%;font-family:Cantarell;-inkscape-font-specification:Sans;text-align:start;letter-spacing:0px;word-spacing:0px;writing-mode:lr-tb;text-anchor:start;fill:#000000;fill-opacity:1;stroke:none;stroke-width:1px;stroke-linecap:butt;stroke-linejoin:miter;stroke-opacity:1"
       x="431.91779"
       y="132.5769"
       id="text5862"
       sodipodi:linespacing="125%"
       transform="matrix(0.88294759,0.46947156,-0.46947156,0.88294759,0,0)"><tspan
         sodipodi:role="line"
         id="tspan5864"
         x="431.91779"
         y="132.5769">1 m</tspan></text>
    <path
       style="fill:none;fill-rule:evenodd;stroke:#000000;stroke-width:1px;stroke-linecap:butt;stroke-linejoin:miter;stroke-opacity:1;marker-start:url(#Arrow2Lstart-2);marker-end:url(#Arrow2Lend-5)"
       d="m 155.68497,287.48356 119.45055,-0.25254"
       id="path4352-6"
       inkscape:connector-curvature="0"
       sodipodi:nodetypes="cc" />
    <text
       xml:space="preserve"
       style="font-style:normal;font-variant:normal;font-weight:normal;font-stretch:normal;font-size:12.5px;line-height:125%;font-family:Cantarell;-inkscape-font-specification:Sans;text-align:start;letter-spacing:0px;word-spacing:0px;writing-mode:lr-tb;text-anchor:start;fill:#000000;fill-opacity:1;stroke:none;stroke-width:1px;stroke-linecap:butt;stroke-linejoin:miter;stroke-opacity:1"
       x="205.93518"
       y="298.71274"
       id="text5862-0"
       sodipodi:linespacing="125%"><tspan
         sodipodi:role="line"
         id="tspan5864-5"
         x="205.93518"
         y="298.71274">1 m</tspan></text>
    <g
       id="g10342"
       transform="translate(34.250436,62.574211)">
      <path
         sodipodi:nodetypes="cc"
         inkscape:connector-curvature="0"
         id="path4352-6-8"
         d="M 32.95622,100.13782 32.70368,55.41076"
         style="fill:none;fill-rule:evenodd;stroke:#000000;stroke-width:0.99999994px;stroke-linecap:butt;stroke-linejoin:miter;stroke-opacity:1;marker-end:url(#Arrow2Lend-5-9)" />
      <path
         sodipodi:nodetypes="cc"
         inkscape:connector-curvature="0"
         id="path4352-6-8-3"
         d="M 32.52821,99.96293 77.25527,99.71039"
         style="fill:none;fill-rule:evenodd;stroke:#000000;stroke-width:0.99999994px;stroke-linecap:butt;stroke-linejoin:miter;stroke-opacity:1;marker-end:url(#Arrow2Lend-5-9-5)" />
      <text
         sodipodi:linespacing="125%"
         id="text10283"
         y="97.293602"
         x="49.874744"
         style="font-style:normal;font-variant:normal;font-weight:normal;font-stretch:normal;font-size:12.5px;line-height:125%;font-family:Cantarell;-inkscape-font-specification:Sans;text-align:start;letter-spacing:0px;word-spacing:0px;writing-mode:lr-tb;text-anchor:start;fill:#000000;fill-opacity:1;stroke:none;stroke-width:1px;stroke-linecap:butt;stroke-linejoin:miter;stroke-opacity:1"
         xml:space="preserve"><tspan
           y="97.293602"
           x="49.874744"
           id="tspan10285"
           sodipodi:role="line">+x</tspan></text>
      <text
         sodipodi:linespacing="125%"
         id="text10287"
         y="75.483421"
         x="34.074703"
         style="font-style:normal;font-variant:normal;font-weight:normal;font-stretch:normal;font-size:12.5px;line-height:125%;font-family:Cantarell;-inkscape-font-specification:Sans;text-align:start;letter-spacing:0px;word-spacing:0px;writing-mode:lr-tb;text-anchor:start;fill:#000000;fill-opacity:1;stroke:none;stroke-width:1px;stroke-linecap:butt;stroke-linejoin:miter;stroke-opacity:1"
         xml:space="preserve"><tspan
           y="75.483421"
           x="34.074703"
           id="tspan10289"
           sodipodi:role="line">+y</tspan></text>
    </g>
    <path
       style="opacity:1;fill:#888d93;fill-opacity:1;stroke:#000000;stroke-width:2;stroke-linejoin:miter;stroke-miterlimit:4;stroke-dasharray:none;stroke-dashoffset:0;stroke-opacity:1"
       id="path4391-4"
       sodipodi:type="arc"
       sodipodi:cx="355.79056"
       sodipodi:cy="-235.4516"
       sodipodi:rx="12.753176"
       sodipodi:ry="12.753176"
       sodipodi:start="1.5707963"
       sodipodi:end="4.712389"
       d="m 355.79056,-222.69842 a 12.753176,12.753176 0 0 1 -11.04458,-6.37659 12.753176,12.753176 0 0 1 0,-12.75318 12.753176,12.753176 0 0 1 11.04458,-6.37658 l 0,12.75317 z"
       transform="matrix(0,1,-1,0,0,0)" />
    <path
       style="opacity:1;fill:none;fill-opacity:1;stroke:#000000;stroke-width:2;stroke-linejoin:miter;stroke-miterlimit:4;stroke-dasharray:none;stroke-dashoffset:0;stroke-opacity:1"
       id="path4391"
       sodipodi:type="arc"
       sodipodi:cx="184.18663"
       sodipodi:cy="-409.37607"
       sodipodi:rx="12.753176"
       sodipodi:ry="12.753176"
       sodipodi:start="5.6670841"
       sodipodi:end="2.2514747"
       d="m 194.59498,-416.74559 a 12.753176,12.753176 0 0 1 -1.68632,16.6738 12.753176,12.753176 0 0 1 -16.74786,0.6068"
       sodipodi:open="true"
       transform="matrix(0,1,-1,0,0,0)" />
    <path
       style="opacity:1;fill:none;fill-opacity:1;stroke:#000000;stroke-width:2;stroke-linejoin:miter;stroke-miterlimit:4;stroke-dasharray:none;stroke-dashoffset:0;stroke-opacity:1"
       id="path4391-0"
       sodipodi:type="arc"
       sodipodi:cx="-408.82379"
       sodipodi:cy="-346.96176"
       sodipodi:rx="12.753176"
       sodipodi:ry="12.753176"
       sodipodi:start="5.6670841"
       sodipodi:end="2.2514747"
       d="m -398.41545,-354.33128 a 12.753176,12.753176 0 0 1 -1.68631,16.6738 12.753176,12.753176 0 0 1 -16.74786,0.6068"
       sodipodi:open="true"
       transform="scale(-1,-1)" />
    <path
       style="opacity:1;fill:none;fill-opacity:1;stroke:#000000;stroke-width:2;stroke-linejoin:miter;stroke-miterlimit:4;stroke-dasharray:none;stroke-dashoffset:0;stroke-opacity:1"
       id="path4391-9"
       sodipodi:type="arc"
       sodipodi:cx="60.646084"
       sodipodi:cy="182.7234"
       sodipodi:rx="12.753176"
       sodipodi:ry="12.753176"
       sodipodi:start="5.6670841"
       sodipodi:end="2.2514747"
       d="m 71.05443,175.35388 a 12.753176,12.753176 0 0 1 -1.686313,16.6738 12.753176,12.753176 0 0 1 -16.747866,0.6068"
       sodipodi:open="true" />
    <g
       transform="matrix(0,-1,1,0,-3.18626,525.00472)"
       id="g4412-8-6"
       style="fill:none">
      <path
         sodipodi:open="true"
         d="m 189.53571,55.40549 a 12.753176,12.753176 0 0 1 -1.68631,16.673799 12.753176,12.753176 0 0 1 -16.74787,0.606799"
         sodipodi:end="2.2514747"
         sodipodi:start="5.6670841"
         sodipodi:ry="12.753176"
         sodipodi:rx="12.753176"
         sodipodi:cy="62.775009"
         sodipodi:cx="179.12737"
         sodipodi:type="arc"
         id="path4391-0-7"
         style="opacity:1;fill:none;fill-opacity:1;stroke:#000000;stroke-width:2;stroke-linejoin:miter;stroke-miterlimit:4;stroke-dasharray:none;stroke-dashoffset:0;stroke-opacity:1" />
      <path
         transform="translate(27.983288,53.739177)"
         inkscape:connector-curvature="0"
         id="path4410-5-7"
         d="m 148.31398,20.389071 c -1.25267,-0.332055 -2.57611,-0.893677 -3.49419,-1.48281 l -0.59744,-0.383372 0.32387,-0.906176 c 0.41327,-1.156318 1.54863,-3.427536 2.28348,-4.567979 2.39718,-3.720265 5.93042,-6.8278882 9.90082,-8.7081683 1.11082,-0.5260544 4.25143,-1.6469146 4.34696,-1.5513929 0.022,0.021966 0.26624,0.492668 0.54283,1.0460048 1.36023,2.7212284 1.58844,5.8818024 0.63793,8.8347494 -1.17214,3.641494 -4.2105,6.565318 -7.94648,7.646939 -0.73709,0.213399 -1.38087,0.285179 -2.90419,0.323811 -1.7564,0.04454 -2.07375,0.01873 -3.09359,-0.251606 z"
         style="opacity:1;fill:none;fill-opacity:1;stroke:none;stroke-width:2;stroke-linejoin:miter;stroke-miterlimit:4;stroke-dasharray:none;stroke-dashoffset:0;stroke-opacity:1" />
    </g>
    <path
       style="opacity:1;fill:#888d93;fill-opacity:1;stroke:#000000;stroke-width:2;stroke-linejoin:miter;stroke-miterlimit:4;stroke-dasharray:none;stroke-dashoffset:0;stroke-opacity:1"
       id="path4391-4-0"
       sodipodi:type="arc"
       sodipodi:cx="-175.47379"
       sodipodi:cy="234.93533"
       sodipodi:rx="12.753176"
       sodipodi:ry="12.753176"
       sodipodi:start="1.5707963"
       sodipodi:end="4.712389"
       d="m -175.47379,247.68851 a 12.753176,12.753176 0 0 1 -11.04457,-6.37659 12.753176,12.753176 0 0 1 0,-12.75317 12.753176,12.753176 0 0 1 11.04457,-6.37659 l 0,12.75317 z"
       transform="matrix(0,-1,1,0,0,0)" />
    <path
       style="fill:none;fill-rule:evenodd;stroke:#d6d8da;stroke-width:0.49999997;stroke-linecap:butt;stroke-linejoin:miter;stroke-miterlimit:4;stroke-dasharray:1.00000002, 0.50000002;stroke-dashoffset:0;stroke-opacity:1"
       d="m 343.0833,224.99251 64.86919,-38.9334"
       id="path4327-0"
       inkscape:connector-curvature="0"
       sodipodi:nodetypes="cc" />
    <path
       style="fill:none;fill-rule:evenodd;stroke:#d6d8da;stroke-width:0.5;stroke-linecap:butt;stroke-linejoin:miter;stroke-miterlimit:4;stroke-dasharray:1, 0.5;stroke-dashoffset:0;stroke-opacity:1"
       d="m 350.23681,220.55443 c 33.20876,0 33.20876,0.1894 33.20876,0.1894 l 0,0"
       id="path4571"
       inkscape:connector-curvature="0" />
    <path
       style="opacity:1;fill:none;fill-opacity:1;stroke:#d6d8da;stroke-width:0.5;stroke-linejoin:miter;stroke-miterlimit:4;stroke-dasharray:none;stroke-dashoffset:0;stroke-opacity:1"
       id="path4573"
       sodipodi:type="arc"
       sodipodi:cx="220.46832"
       sodipodi:cy="-350.73145"
       sodipodi:rx="9.3396502"
       sodipodi:ry="9.3396502"
       sodipodi:start="4.1573743"
       sodipodi:end="4.7263516"
       d="m 215.54674,-358.66915 a 9.3396502,9.3396502 0 0 1 5.05198,-1.40104"
       sodipodi:open="true"
       transform="matrix(0,1,-1,0,0,0)" />
    <text
       xml:space="preserve"
       style="font-style:normal;font-variant:normal;font-weight:normal;font-stretch:normal;font-size:12.5px;line-height:125%;font-family:Cantarell;-inkscape-font-specification:Sans;text-align:start;letter-spacing:0px;word-spacing:0px;writing-mode:lr-tb;text-anchor:start;fill:#d6d8da;fill-opacity:1;stroke:none;stroke-width:1px;stroke-linecap:butt;stroke-linejoin:miter;stroke-opacity:1"
       x="353.02161"
       y="232.69417"
       id="text4577"
       sodipodi:linespacing="125%"><tspan
         sodipodi:role="line"
         id="tspan4579"
         x="353.02161"
         y="232.69417">31°</tspan></text>
    <path
       style="opacity:1;fill:#888d93;fill-opacity:1;stroke:#888d93;stroke-width:0.5;stroke-linejoin:miter;stroke-miterlimit:4;stroke-dasharray:none;stroke-dashoffset:0;stroke-opacity:1"
       d="m 295.07844,169.12171 c -2.58904,-0.4369 -5.28918,-1.95948 -6.91175,-3.89746 l -0.51856,-0.61937 0.38018,-0.24071 c 0.3465,-0.21939 0.36419,-0.2625 0.19968,-0.48648 -0.17368,-0.23647 -0.19467,-0.23744 -0.55485,-0.0258 -0.36537,0.21466 -0.37878,0.21315 -0.5599,-0.0633 -0.442,-0.67458 -1.00114,-1.93045 -1.31796,-2.96027 -0.31449,-1.02222 -0.34172,-1.2818 -0.34172,-3.25731 0,-1.97551 0.0272,-2.23509 0.34172,-3.25731 0.31577,-1.02639 0.8758,-2.28545 1.31414,-2.95444 l 0.18174,-0.27736 1.01214,0.37319 c 1.57488,0.58067 3.87347,1.80585 5.37004,2.86229 1.6164,1.14103 4.20416,3.66539 5.33597,5.20524 1.58355,2.15445 2.98062,4.89939 3.66754,7.20595 0.32657,1.09656 0.37341,1.02768 -1.12214,1.65028 -1.82847,0.76119 -4.53077,1.07116 -6.47627,0.74286 z m -5.56177,-5.6531 c 0.21203,-0.1431 0.0596,-0.53197 -0.20719,-0.52836 -0.1141,0.002 -0.34197,0.10626 -0.50638,0.23269 -0.22052,0.16959 -0.27632,0.30105 -0.21277,0.50127 0.0804,0.25324 0.10882,0.2591 0.42518,0.0876 0.18648,-0.10108 0.412,-0.23303 0.50116,-0.29321 z m 1.04953,-0.62152 c 0.41464,-0.24494 0.42866,-0.2837 0.20888,-0.57732 -0.14609,-0.19518 -0.18836,-0.19135 -0.56821,0.0514 -0.39353,0.2515 -0.50602,0.47854 -0.32619,0.65837 0.13179,0.13179 0.28991,0.10124 0.68552,-0.13245 z m 1.26269,-0.75762 c 0.3975,-0.23481 0.45975,-0.43286 0.20302,-0.64592 -0.12023,-0.0998 -0.26275,-0.0709 -0.53664,0.10878 -0.20512,0.13456 -0.36726,0.30238 -0.36032,0.37294 0.032,0.32532 0.0596,0.38083 0.18886,0.38083 0.0761,0 0.30338,-0.0975 0.50508,-0.21663 z m 1.26269,-0.75761 c 0.38434,-0.22703 0.43622,-0.362 0.25136,-0.65393 -0.0921,-0.14546 -0.19056,-0.1272 -0.56627,0.105 -0.49405,0.30534 -0.53303,0.38427 -0.30327,0.61403 0.19173,0.19173 0.1816,0.19279 0.61818,-0.0651 z m 1.3296,-0.80333 c 0.35758,-0.221 0.404,-0.30059 0.29457,-0.50507 -0.16177,-0.30228 -0.18535,-0.30162 -0.7051,0.0196 -0.35758,0.221 -0.404,0.30059 -0.29456,0.50508 0.16177,0.30227 0.18534,0.30161 0.70509,-0.0196 z m 1.06573,-0.62598 c 0.2626,-0.14054 0.30489,-0.33568 0.13192,-0.60866 -0.0894,-0.14108 -0.16628,-0.13327 -0.43755,0.0445 -0.26814,0.17569 -0.30534,0.26 -0.20084,0.45526 0.14858,0.27762 0.17902,0.28416 0.50647,0.10892 z"
       id="path9943"
       inkscape:connector-curvature="0"
       transform="translate(112.33103,26.617713)" />
    <path
       style="opacity:1;fill:#888d93;fill-opacity:1;stroke:#888d93;stroke-width:0.5;stroke-linejoin:miter;stroke-miterlimit:4;stroke-dasharray:none;stroke-dashoffset:0;stroke-opacity:1"
       d="m 285.88463,324.91746 c -2.51871,-5.50159 -0.009,-12.30456 5.54554,-15.0323 2.69217,-1.32208 7.15435,-1.41749 9.7819,-0.20916 l 1.68885,0.77665 -0.51971,1.47304 c -1.98367,5.6223 -6.16164,10.55675 -11.09062,13.09873 -4.4521,2.29604 -4.30449,2.29896 -5.40596,-0.10696 z"
       id="path9945"
       inkscape:connector-curvature="0"
       transform="translate(112.33103,26.617713)" />
    <path
       style="opacity:1;fill:#888d93;fill-opacity:1;stroke:#888d93;stroke-width:0.5;stroke-linejoin:miter;stroke-miterlimit:4;stroke-dasharray:none;stroke-dashoffset:0;stroke-opacity:1"
       d="m -55.994064,166.81979 c -2.996104,-1.14518 -3.079626,-2.17184 -0.491937,-6.04693 2.541913,-3.80655 5.338164,-6.26187 9.330771,-8.19314 4.587006,-2.21878 5.500181,-2.3294 6.218314,-0.75327 0.946049,2.07635 0.747961,7.08432 -0.365677,9.24487 -2.865674,5.55965 -8.953456,7.94168 -14.691471,5.74847 z"
       id="path9947"
       inkscape:connector-curvature="0"
       transform="translate(112.33103,26.617713)" />
    <path
       style="opacity:1;fill:#888d93;fill-opacity:1;stroke:#888d93;stroke-width:0.5;stroke-linejoin:miter;stroke-miterlimit:4;stroke-dasharray:none;stroke-dashoffset:0;stroke-opacity:1"
       d="m -47.632153,325.24382 c -3.955388,-2.03837 -8.27641,-6.43983 -10.286103,-10.47756 -2.003818,-4.02594 -2.013648,-4.86238 -0.06896,-5.86802 3.979575,-2.05792 9.3467,-1.3472 12.707321,1.68272 2.662937,2.40088 3.907909,5.16406 3.921949,8.70463 0.01101,2.7757 -1.606831,7.09079 -2.766827,7.37967 -0.277792,0.0692 -1.856113,-0.57047 -3.507381,-1.42144 z"
       id="path9949"
       inkscape:connector-curvature="0"
       transform="translate(112.33103,26.617713)" />
  </g>
</svg>
